<svg xmlns="http://www.w3.org/2000/svg" xmlns:xlink="http://www.w3.org/1999/xlink" width="1920" zoomAndPan="magnify" viewBox="0 0 1440 394.499988" height="526" preserveAspectRatio="xMidYMid meet" version="1.0"><defs><g/><clipPath id="65dfde42b4"><path d="M 0.910156 0 L 394.910156 0 L 394.910156 394 L 0.910156 394 Z M 0.910156 0 " clip-rule="nonzero"/></clipPath><clipPath id="d65dadbace"><path d="M 197.910156 394 C 145.316406 394 95.789062 373.527344 58.625 336.285156 C 21.382812 299.121094 0.910156 249.597656 0.910156 197 C 0.910156 144.402344 21.382812 94.878906 58.625 57.714844 C 95.789062 20.472656 145.316406 0 197.910156 0 C 250.507812 0 300.035156 20.472656 337.199219 57.714844 C 374.441406 94.957031 394.910156 144.402344 394.910156 197 C 394.910156 249.597656 374.441406 299.121094 337.199219 336.285156 C 300.035156 373.527344 250.507812 394 197.910156 394 Z M 197.910156 11.8125 C 148.464844 11.8125 101.929688 31.101562 66.972656 66.058594 C 32.011719 101.019531 12.722656 147.554688 12.722656 197 C 12.722656 246.445312 32.011719 292.980469 66.972656 327.941406 C 101.929688 362.898438 148.464844 382.191406 197.910156 382.191406 C 247.359375 382.191406 293.890625 362.898438 328.851562 327.941406 C 363.8125 292.980469 383.101562 246.445312 383.101562 197 C 383.101562 147.554688 363.8125 101.019531 328.851562 66.058594 C 293.890625 31.101562 247.359375 11.8125 197.910156 11.8125 Z M 197.910156 11.8125 " clip-rule="nonzero"/></clipPath><clipPath id="6a90c57a0c"><path d="M 114 82 L 293 82 L 293 249 L 114 249 Z M 114 82 " clip-rule="nonzero"/></clipPath><clipPath id="8174740e53"><path d="M 114.59375 82.550781 L 292.460938 83.808594 L 291.292969 248.972656 L 113.425781 247.714844 Z M 114.59375 82.550781 " clip-rule="nonzero"/></clipPath><clipPath id="8f944c7440"><path d="M 114.59375 82.550781 L 292.460938 83.808594 L 291.292969 248.972656 L 113.425781 247.714844 Z M 114.59375 82.550781 " clip-rule="nonzero"/></clipPath><clipPath id="11eb2943f2"><path d="M 263 186 L 323 186 L 323 253 L 263 253 Z M 263 186 " clip-rule="nonzero"/></clipPath><clipPath id="54292a825e"><path d="M 310.265625 176.910156 L 332.761719 242.457031 L 275.953125 261.953125 L 253.457031 196.40625 Z M 310.265625 176.910156 " clip-rule="nonzero"/></clipPath><clipPath id="a4948aca13"><path d="M 310.265625 176.910156 L 332.761719 242.457031 L 275.953125 261.953125 L 253.457031 196.40625 Z M 310.265625 176.910156 " clip-rule="nonzero"/></clipPath><clipPath id="a115bc5a41"><path d="M 209 236 L 274 236 L 274 310 L 209 310 Z M 209 236 " clip-rule="nonzero"/></clipPath><clipPath id="359e639a97"><path d="M 260.269531 226.566406 L 285.015625 298.667969 L 222.746094 320.039062 L 198 247.9375 Z M 260.269531 226.566406 " clip-rule="nonzero"/></clipPath><clipPath id="41e3bf4555"><path d="M 260.269531 226.566406 L 285.015625 298.667969 L 222.746094 320.039062 L 198 247.9375 Z M 260.269531 226.566406 " clip-rule="nonzero"/></clipPath><clipPath id="36faddc2fb"><path d="M 130 240 L 197 240 L 197 315 L 130 315 Z M 130 240 " clip-rule="nonzero"/></clipPath><clipPath id="7d5a496372"><path d="M 207.714844 256.007812 L 178.054688 326.230469 L 117.40625 300.609375 L 147.070312 230.386719 Z M 207.714844 256.007812 " clip-rule="nonzero"/></clipPath><clipPath id="3bb5cfe9a2"><path d="M 207.714844 256.007812 L 178.054688 326.230469 L 117.40625 300.609375 L 147.070312 230.386719 Z M 207.714844 256.007812 " clip-rule="nonzero"/></clipPath><clipPath id="3ab4f1567b"><path d="M 79 194 L 142 194 L 142 258 L 79 258 Z M 79 194 " clip-rule="nonzero"/></clipPath><clipPath id="ca68b5e639"><path d="M 153.570312 219.164062 L 110.992188 270.886719 L 66.40625 234.183594 L 108.980469 182.460938 Z M 153.570312 219.164062 " clip-rule="nonzero"/></clipPath><clipPath id="8e26bde287"><path d="M 153.570312 219.164062 L 110.992188 270.886719 L 66.40625 234.183594 L 108.980469 182.460938 Z M 153.570312 219.164062 " clip-rule="nonzero"/></clipPath></defs><g fill="#000000" fill-opacity="1"><g transform="translate(468.775836, 299.490107)"><g><path d="M 27.0625 0 L 27.0625 -210.078125 L 92.921875 -210.078125 C 103.628906 -210.078125 113.488281 -208.710938 122.5 -205.984375 C 131.519531 -203.265625 139.375 -199.25 146.0625 -193.9375 C 152.757812 -188.632812 157.941406 -182.117188 161.609375 -174.390625 C 165.273438 -166.660156 167.109375 -157.84375 167.109375 -147.9375 C 167.109375 -138.125 165.273438 -129.445312 161.609375 -121.90625 C 157.941406 -114.375 152.757812 -108.003906 146.0625 -102.796875 C 139.375 -97.597656 131.519531 -93.6875 122.5 -91.0625 C 113.488281 -88.4375 103.628906 -87.125 92.921875 -87.125 L 64.53125 -87.125 L 64.53125 0 Z M 64.53125 -122.359375 L 92.921875 -122.359375 C 105.898438 -122.359375 115.265625 -124.535156 121.015625 -128.890625 C 126.765625 -133.253906 129.640625 -139.601562 129.640625 -147.9375 C 129.640625 -156.457031 126.710938 -163.070312 120.859375 -167.78125 C 115.015625 -172.488281 105.703125 -174.84375 92.921875 -174.84375 L 64.53125 -174.84375 Z M 64.53125 -122.359375 "/></g></g></g><g fill="#000000" fill-opacity="1"><g transform="translate(642.258651, 299.490107)"><g><path d="M 62.140625 2.96875 C 52.035156 2.96875 42.894531 1.085938 34.71875 -2.671875 C 26.539062 -6.441406 20.070312 -11.96875 15.3125 -19.25 C 10.550781 -26.539062 8.171875 -35.335938 8.171875 -45.640625 C 8.171875 -53.671875 9.679688 -60.4375 12.703125 -65.9375 C 15.734375 -71.4375 19.921875 -75.847656 25.265625 -79.171875 C 30.617188 -82.492188 36.890625 -84.894531 44.078125 -86.375 C 51.265625 -87.863281 59.019531 -88.609375 67.34375 -88.609375 L 106 -88.609375 C 106 -98.023438 103.519531 -105.609375 98.5625 -111.359375 C 93.613281 -117.109375 86.332031 -119.984375 76.71875 -119.984375 C 71.0625 -119.984375 65.976562 -118.988281 61.46875 -117 C 56.96875 -115.019531 53.101562 -112.441406 49.875 -109.265625 C 46.65625 -106.097656 43.957031 -102.679688 41.78125 -99.015625 L 13.96875 -119.09375 C 18.726562 -125.632812 24.082031 -131.332031 30.03125 -136.1875 C 35.976562 -141.039062 42.765625 -144.828125 50.390625 -147.546875 C 58.023438 -150.273438 66.703125 -151.640625 76.421875 -151.640625 C 89.898438 -151.640625 101.421875 -149.035156 110.984375 -143.828125 C 120.546875 -138.628906 127.878906 -131.394531 132.984375 -122.125 C 138.085938 -112.863281 140.640625 -102.1875 140.640625 -90.09375 L 140.640625 0 L 110.765625 0 L 108.390625 -21.265625 C 102.046875 -11.941406 94.957031 -5.570312 87.125 -2.15625 C 79.289062 1.257812 70.960938 2.96875 62.140625 2.96875 Z M 67.34375 -27.65625 C 72.5 -27.65625 77.378906 -28.570312 81.984375 -30.40625 C 86.597656 -32.238281 90.664062 -34.789062 94.1875 -38.0625 C 97.707031 -41.332031 100.53125 -45.046875 102.65625 -49.203125 C 104.789062 -53.367188 105.90625 -57.78125 106 -62.4375 L 69.4375 -62.4375 C 61.207031 -62.4375 55.132812 -60.601562 51.21875 -56.9375 C 47.300781 -53.269531 45.34375 -49.109375 45.34375 -44.453125 C 45.34375 -39.597656 47.25 -35.582031 51.0625 -32.40625 C 54.882812 -29.238281 60.3125 -27.65625 67.34375 -27.65625 Z M 67.34375 -27.65625 "/></g></g></g><g fill="#000000" fill-opacity="1"><g transform="translate(799.983817, 299.490107)"><g><path d="M 47.125 0.59375 L 1.484375 -148.53125 L 40.140625 -148.53125 L 65.421875 -55.453125 L 93.515625 -148.53125 L 124.59375 -148.53125 L 152.546875 -55.75 L 178.109375 -148.53125 L 216.765625 -148.53125 L 170.828125 0 L 138.265625 0 L 108.984375 -97.375 L 79.84375 0.59375 Z M 47.125 0.59375 "/></g></g></g><g fill="#000000" fill-opacity="1"><g transform="translate(1017.915042, 299.490107)"><g><path d="M 27.0625 0 L 27.0625 -210.078125 L 92.921875 -210.078125 C 103.628906 -210.078125 113.488281 -208.710938 122.5 -205.984375 C 131.519531 -203.265625 139.375 -199.25 146.0625 -193.9375 C 152.757812 -188.632812 157.941406 -182.117188 161.609375 -174.390625 C 165.273438 -166.660156 167.109375 -157.84375 167.109375 -147.9375 C 167.109375 -138.125 165.273438 -129.445312 161.609375 -121.90625 C 157.941406 -114.375 152.757812 -108.003906 146.0625 -102.796875 C 139.375 -97.597656 131.519531 -93.6875 122.5 -91.0625 C 113.488281 -88.4375 103.628906 -87.125 92.921875 -87.125 L 64.53125 -87.125 L 64.53125 0 Z M 64.53125 -122.359375 L 92.921875 -122.359375 C 105.898438 -122.359375 115.265625 -124.535156 121.015625 -128.890625 C 126.765625 -133.253906 129.640625 -139.601562 129.640625 -147.9375 C 129.640625 -156.457031 126.710938 -163.070312 120.859375 -167.78125 C 115.015625 -172.488281 105.703125 -174.84375 92.921875 -174.84375 L 64.53125 -174.84375 Z M 64.53125 -122.359375 "/></g></g></g><g fill="#000000" fill-opacity="1"><g transform="translate(1191.397856, 299.490107)"><g><path d="M 62.140625 2.96875 C 52.035156 2.96875 42.894531 1.085938 34.71875 -2.671875 C 26.539062 -6.441406 20.070312 -11.96875 15.3125 -19.25 C 10.550781 -26.539062 8.171875 -35.335938 8.171875 -45.640625 C 8.171875 -53.671875 9.679688 -60.4375 12.703125 -65.9375 C 15.734375 -71.4375 19.921875 -75.847656 25.265625 -79.171875 C 30.617188 -82.492188 36.890625 -84.894531 44.078125 -86.375 C 51.265625 -87.863281 59.019531 -88.609375 67.34375 -88.609375 L 106 -88.609375 C 106 -98.023438 103.519531 -105.609375 98.5625 -111.359375 C 93.613281 -117.109375 86.332031 -119.984375 76.71875 -119.984375 C 71.0625 -119.984375 65.976562 -118.988281 61.46875 -117 C 56.96875 -115.019531 53.101562 -112.441406 49.875 -109.265625 C 46.65625 -106.097656 43.957031 -102.679688 41.78125 -99.015625 L 13.96875 -119.09375 C 18.726562 -125.632812 24.082031 -131.332031 30.03125 -136.1875 C 35.976562 -141.039062 42.765625 -144.828125 50.390625 -147.546875 C 58.023438 -150.273438 66.703125 -151.640625 76.421875 -151.640625 C 89.898438 -151.640625 101.421875 -149.035156 110.984375 -143.828125 C 120.546875 -138.628906 127.878906 -131.394531 132.984375 -122.125 C 138.085938 -112.863281 140.640625 -102.1875 140.640625 -90.09375 L 140.640625 0 L 110.765625 0 L 108.390625 -21.265625 C 102.046875 -11.941406 94.957031 -5.570312 87.125 -2.15625 C 79.289062 1.257812 70.960938 2.96875 62.140625 2.96875 Z M 67.34375 -27.65625 C 72.5 -27.65625 77.378906 -28.570312 81.984375 -30.40625 C 86.597656 -32.238281 90.664062 -34.789062 94.1875 -38.0625 C 97.707031 -41.332031 100.53125 -45.046875 102.65625 -49.203125 C 104.789062 -53.367188 105.90625 -57.78125 106 -62.4375 L 69.4375 -62.4375 C 61.207031 -62.4375 55.132812 -60.601562 51.21875 -56.9375 C 47.300781 -53.269531 45.34375 -49.109375 45.34375 -44.453125 C 45.34375 -39.597656 47.25 -35.582031 51.0625 -32.40625 C 54.882812 -29.238281 60.3125 -27.65625 67.34375 -27.65625 Z M 67.34375 -27.65625 "/></g></g></g><g fill="#000000" fill-opacity="1"><g transform="translate(1349.123022, 299.490107)"><g><path d="M 51.734375 2.96875 C 46.085938 2.96875 40.910156 2.078125 36.203125 0.296875 C 31.492188 -1.484375 27.726562 -4.726562 24.90625 -9.4375 C 22.082031 -14.144531 20.671875 -20.863281 20.671875 -29.59375 L 20.671875 -210.078125 L 56.9375 -210.078125 L 56.9375 -39.546875 C 56.9375 -36.078125 58 -33.550781 60.125 -31.96875 C 62.257812 -30.382812 65.164062 -29.59375 68.84375 -29.59375 C 69.925781 -29.59375 71.382812 -29.664062 73.21875 -29.8125 C 75.050781 -29.957031 76.910156 -30.179688 78.796875 -30.484375 L 78.796875 0 C 75.023438 0.695312 70.660156 1.363281 65.703125 2 C 60.753906 2.644531 56.097656 2.96875 51.734375 2.96875 Z M 51.734375 2.96875 "/></g></g></g><g clip-path="url(#65dfde42b4)"><g clip-path="url(#d65dadbace)"><path fill="#000000" d="M 0.910156 0 L 394.910156 0 L 394.910156 394 L 0.910156 394 Z M 0.910156 0 " fill-opacity="1" fill-rule="nonzero"/></g></g><g clip-path="url(#6a90c57a0c)"><g clip-path="url(#8174740e53)"><g clip-path="url(#8f944c7440)"><path fill="#000000" d="M 161.441406 82.902344 C 135.636719 82.71875 114.546875 103.515625 114.363281 129.320312 C 113.992188 181.820312 166.851562 195.960938 202.570312 248.117188 C 237.050781 196.777344 292.089844 181.402344 292.449219 130.582031 C 292.632812 104.773438 271.835938 83.683594 246.027344 83.5 C 227.3125 83.367188 211.121094 94.304688 203.546875 110.15625 C 196.191406 94.203125 180.160156 83.035156 161.441406 82.902344 Z M 161.441406 82.902344 " fill-opacity="1" fill-rule="nonzero"/></g></g></g><g clip-path="url(#11eb2943f2)"><g clip-path="url(#54292a825e)"><g clip-path="url(#a4948aca13)"><path fill="#000000" d="M 320.980469 211.457031 C 319.003906 202.375 314.777344 194.554688 307.367188 190.269531 C 300.058594 186.027344 289.714844 185.269531 281.222656 187.53125 C 272.800781 189.769531 266.304688 195.007812 264.472656 205.316406 C 262.667969 215.691406 265.554688 231.210938 272.351562 240.585938 C 279.097656 250.0625 289.855469 253.445312 298.726562 252.515625 C 307.667969 251.5625 314.796875 246.269531 318.570312 238.546875 C 322.394531 230.730469 322.863281 220.488281 320.980469 211.457031 Z M 320.980469 211.457031 " fill-opacity="1" fill-rule="evenodd"/></g></g></g><g clip-path="url(#a115bc5a41)"><g clip-path="url(#359e639a97)"><g clip-path="url(#41e3bf4555)"><path fill="#000000" d="M 271.941406 264.195312 C 269.789062 254.304688 265.179688 245.789062 257.109375 241.117188 C 249.148438 236.496094 237.878906 235.667969 228.625 238.136719 C 219.453125 240.574219 212.375 246.28125 210.382812 257.507812 C 208.414062 268.8125 211.558594 285.714844 218.964844 295.933594 C 226.316406 306.253906 238.03125 309.9375 247.695312 308.925781 C 257.4375 307.886719 265.203125 302.121094 269.316406 293.710938 C 273.480469 285.195312 273.988281 274.035156 271.941406 264.195312 Z M 271.941406 264.195312 " fill-opacity="1" fill-rule="evenodd"/></g></g></g><g clip-path="url(#36faddc2fb)"><g clip-path="url(#7d5a496372)"><g clip-path="url(#3bb5cfe9a2)"><path fill="#000000" d="M 191.308594 291.824219 C 196.300781 283.019531 198.554688 273.601562 195.65625 264.738281 C 192.804688 255.984375 184.964844 247.851562 176.425781 243.515625 C 167.964844 239.214844 158.882812 238.742188 149.910156 245.777344 C 140.902344 252.886719 131.96875 267.578125 130.671875 280.125 C 129.261719 292.71875 135.535156 303.28125 143.40625 308.972656 C 151.359375 314.699219 160.988281 315.582031 169.664062 312.0625 C 178.445312 308.496094 186.273438 300.519531 191.308594 291.824219 Z M 191.308594 291.824219 " fill-opacity="1" fill-rule="evenodd"/></g></g></g><g clip-path="url(#3ab4f1567b)"><g clip-path="url(#ca68b5e639)"><g clip-path="url(#8e26bde287)"><path fill="#000000" d="M 130.542969 245.488281 C 137.019531 239.257812 141.316406 231.816406 141.097656 223.539062 C 140.886719 215.371094 136.269531 206.464844 130.101562 200.617188 C 123.992188 194.816406 116.382812 192.121094 106.96875 195.835938 C 97.507812 199.605469 86.1875 209.84375 81.910156 220.195312 C 77.523438 230.554688 80.1875 241.125 85.449219 247.960938 C 90.765625 254.84375 98.738281 258.03125 107.007812 257.230469 C 115.382812 256.417969 124.058594 251.613281 130.542969 245.488281 Z M 130.542969 245.488281 " fill-opacity="1" fill-rule="evenodd"/></g></g></g></svg>