<svg xmlns="http://www.w3.org/2000/svg" xmlns:xlink="http://www.w3.org/1999/xlink" width="500" zoomAndPan="magnify" viewBox="0 0 375 374.999991" height="500" preserveAspectRatio="xMidYMid meet" version="1.0"><defs><clipPath id="7c2e79c5f2"><path d="M 3.636719 3.636719 L 371.363281 3.636719 L 371.363281 371.363281 L 3.636719 371.363281 Z M 3.636719 3.636719 " clip-rule="nonzero"/></clipPath><clipPath id="67a27f72c1"><path d="M 187.5 371.363281 C 138.410156 371.363281 92.1875 352.257812 57.5 317.5 C 22.742188 282.8125 3.636719 236.589844 3.636719 187.5 C 3.636719 138.410156 22.742188 92.1875 57.5 57.5 C 92.1875 22.742188 138.410156 3.636719 187.5 3.636719 C 236.589844 3.636719 282.8125 22.742188 317.5 57.5 C 352.257812 92.261719 371.363281 138.410156 371.363281 187.5 C 371.363281 236.589844 352.257812 282.8125 317.5 317.5 C 282.8125 352.257812 236.589844 371.363281 187.5 371.363281 Z M 187.5 14.660156 C 141.351562 14.660156 97.917969 32.664062 65.292969 65.292969 C 32.664062 97.917969 14.660156 141.351562 14.660156 187.5 C 14.660156 233.648438 32.664062 277.082031 65.292969 309.707031 C 97.917969 342.335938 141.351562 360.339844 187.5 360.339844 C 233.648438 360.339844 277.082031 342.335938 309.707031 309.707031 C 342.335938 277.082031 360.339844 233.648438 360.339844 187.5 C 360.339844 141.351562 342.335938 97.917969 309.707031 65.292969 C 277.082031 32.664062 233.648438 14.660156 187.5 14.660156 Z M 187.5 14.660156 " clip-rule="nonzero"/></clipPath><clipPath id="bbc967a4ec"><path d="M 89 64 L 282 64 L 282 243 L 89 243 Z M 89 64 " clip-rule="nonzero"/></clipPath><clipPath id="c73653c78e"><path d="M 89.886719 64.175781 L 281.550781 65.53125 L 280.292969 243.503906 L 88.628906 242.148438 Z M 89.886719 64.175781 " clip-rule="nonzero"/></clipPath><clipPath id="ed1d2b9385"><path d="M 89.886719 64.175781 L 281.550781 65.53125 L 280.292969 243.503906 L 88.628906 242.148438 Z M 89.886719 64.175781 " clip-rule="nonzero"/></clipPath><clipPath id="613043f791"><path d="M 250 175 L 314 175 L 314 248 L 250 248 Z M 250 175 " clip-rule="nonzero"/></clipPath><clipPath id="e869ba801b"><path d="M 300.734375 165.851562 L 324.976562 236.484375 L 263.761719 257.492188 L 239.523438 186.859375 Z M 300.734375 165.851562 " clip-rule="nonzero"/></clipPath><clipPath id="fe73c975c9"><path d="M 300.734375 165.851562 L 324.976562 236.484375 L 263.761719 257.492188 L 239.523438 186.859375 Z M 300.734375 165.851562 " clip-rule="nonzero"/></clipPath><clipPath id="dd7b672d57"><path d="M 192 230 L 261 230 L 261 309 L 192 309 Z M 192 230 " clip-rule="nonzero"/></clipPath><clipPath id="2e84dc9146"><path d="M 246.863281 219.359375 L 273.527344 297.054688 L 206.429688 320.082031 L 179.765625 242.390625 Z M 246.863281 219.359375 " clip-rule="nonzero"/></clipPath><clipPath id="2748b28147"><path d="M 246.863281 219.359375 L 273.527344 297.054688 L 206.429688 320.082031 L 179.765625 242.390625 Z M 246.863281 219.359375 " clip-rule="nonzero"/></clipPath><clipPath id="7e4d002c78"><path d="M 107 234 L 179 234 L 179 314 L 107 314 Z M 107 234 " clip-rule="nonzero"/></clipPath><clipPath id="a020413129"><path d="M 190.234375 251.082031 L 158.269531 326.75 L 92.917969 299.144531 L 124.882812 223.476562 Z M 190.234375 251.082031 " clip-rule="nonzero"/></clipPath><clipPath id="188d4df243"><path d="M 190.234375 251.082031 L 158.269531 326.75 L 92.917969 299.144531 L 124.882812 223.476562 Z M 190.234375 251.082031 " clip-rule="nonzero"/></clipPath><clipPath id="665e1990f4"><path d="M 52 184 L 119 184 L 119 253 L 52 253 Z M 52 184 " clip-rule="nonzero"/></clipPath><clipPath id="e6c234a726"><path d="M 131.886719 211.382812 L 86.011719 267.117188 L 37.964844 227.566406 L 83.839844 171.835938 Z M 131.886719 211.382812 " clip-rule="nonzero"/></clipPath><clipPath id="eb7d80ebea"><path d="M 131.886719 211.382812 L 86.011719 267.117188 L 37.964844 227.566406 L 83.839844 171.835938 Z M 131.886719 211.382812 " clip-rule="nonzero"/></clipPath></defs><g clip-path="url(#7c2e79c5f2)"><g clip-path="url(#67a27f72c1)"><path fill="#000000" d="M 3.636719 3.636719 L 371.363281 3.636719 L 371.363281 371.363281 L 3.636719 371.363281 Z M 3.636719 3.636719 " fill-opacity="1" fill-rule="nonzero"/></g></g><g clip-path="url(#bbc967a4ec)"><g clip-path="url(#c73653c78e)"><g clip-path="url(#ed1d2b9385)"><path fill="#000000" d="M 140.371094 64.554688 C 112.566406 64.359375 89.835938 86.765625 89.640625 114.574219 C 89.242188 171.144531 146.199219 186.378906 184.6875 242.582031 C 221.84375 187.257812 281.152344 170.691406 281.539062 115.929688 C 281.734375 88.121094 259.324219 65.394531 231.519531 65.199219 C 211.347656 65.054688 193.902344 76.84375 185.738281 93.921875 C 177.816406 76.730469 160.542969 64.695312 140.371094 64.554688 Z M 140.371094 64.554688 " fill-opacity="1" fill-rule="nonzero"/></g></g></g><g clip-path="url(#613043f791)"><g clip-path="url(#e869ba801b)"><g clip-path="url(#fe73c975c9)"><path fill="#000000" d="M 312.285156 203.078125 C 310.152344 193.292969 305.597656 184.867188 297.613281 180.246094 C 289.738281 175.675781 278.589844 174.859375 269.4375 177.296875 C 260.367188 179.710938 253.367188 185.355469 251.394531 196.460938 C 249.449219 207.644531 252.558594 224.363281 259.878906 234.46875 C 267.152344 244.679688 278.742188 248.324219 288.300781 247.320312 C 297.9375 246.292969 305.617188 240.589844 309.6875 232.269531 C 313.804688 223.847656 314.308594 212.808594 312.285156 203.078125 Z M 312.285156 203.078125 " fill-opacity="1" fill-rule="evenodd"/></g></g></g><g clip-path="url(#dd7b672d57)"><g clip-path="url(#2e84dc9146)"><g clip-path="url(#2748b28147)"><path fill="#000000" d="M 259.441406 259.910156 C 257.121094 249.25 252.15625 240.070312 243.460938 235.039062 C 234.878906 230.058594 222.734375 229.167969 212.765625 231.828125 C 202.882812 234.453125 195.253906 240.605469 193.105469 252.699219 C 190.988281 264.882812 194.375 283.097656 202.351562 294.105469 C 210.273438 305.226562 222.902344 309.199219 233.3125 308.109375 C 243.8125 306.988281 252.179688 300.773438 256.609375 291.710938 C 261.097656 282.535156 261.648438 270.511719 259.441406 259.910156 Z M 259.441406 259.910156 " fill-opacity="1" fill-rule="evenodd"/></g></g></g><g clip-path="url(#7e4d002c78)"><g clip-path="url(#a020413129)"><g clip-path="url(#188d4df243)"><path fill="#000000" d="M 172.554688 289.679688 C 177.933594 280.191406 180.359375 270.042969 177.238281 260.492188 C 174.167969 251.058594 165.714844 242.292969 156.515625 237.625 C 147.398438 232.988281 137.617188 232.480469 127.945312 240.0625 C 118.238281 247.722656 108.613281 263.550781 107.214844 277.074219 C 105.695312 290.644531 112.453125 302.027344 120.9375 308.160156 C 129.507812 314.328125 139.882812 315.28125 149.230469 311.484375 C 158.695312 307.640625 167.125 299.050781 172.554688 289.679688 Z M 172.554688 289.679688 " fill-opacity="1" fill-rule="evenodd"/></g></g></g><g clip-path="url(#665e1990f4)"><g clip-path="url(#e6c234a726)"><g clip-path="url(#eb7d80ebea)"><path fill="#000000" d="M 107.078125 239.75 C 114.054688 233.039062 118.6875 225.015625 118.449219 216.101562 C 118.21875 207.296875 113.246094 197.703125 106.601562 191.398438 C 100.015625 185.148438 91.820312 182.242188 81.675781 186.246094 C 71.476562 190.308594 59.28125 201.34375 54.671875 212.492188 C 49.945312 223.65625 52.816406 235.050781 58.484375 242.414062 C 64.214844 249.828125 72.804688 253.265625 81.714844 252.402344 C 90.738281 251.527344 100.089844 246.347656 107.078125 239.75 Z M 107.078125 239.75 " fill-opacity="1" fill-rule="evenodd"/></g></g></g></svg>